<svg xmlns="http://www.w3.org/2000/svg" viewBox="0 0 32 32" fill="none">
  <!-- Background circle with gradient -->
  <defs>
    <linearGradient id="bgGrad" x1="0%" y1="0%" x2="100%" y2="100%">
      <stop offset="0%" style="stop-color:#0D9488"/>
      <stop offset="100%" style="stop-color:#059669"/>
    </linearGradient>
  </defs>

  <!-- Rounded square background -->
  <rect width="32" height="32" rx="6" fill="url(#bgGrad)"/>

  <!-- Stylized B letter -->
  <path
    d="M10 7h7c2.5 0 4.5 1.8 4.5 4 0 1.3-.7 2.5-1.8 3.2 1.5.7 2.5 2.2 2.5 3.8 0 2.5-2.2 4.5-5 4.5H10V7z
    M13 10v3.5h3.5c1.1 0 2-.7 2-1.75s-.9-1.75-2-1.75H13z
    M13 16v3.5h4c1.4 0 2.5-.8 2.5-1.75S18.4 16 17 16h-4z"
    fill="white"
  />

  <!-- Trend line accent -->
  <path
    d="M22 24l2-3 3 1.5"
    stroke="white"
    stroke-width="1.5"
    stroke-linecap="round"
    stroke-linejoin="round"
    opacity="0.8"
  />
</svg>
